<svg id="visual" viewBox="0 0 1920 1080" width="1920" height="1080" xmlns="http://www.w3.org/2000/svg" xmlns:xlink="http://www.w3.org/1999/xlink" version="1.1"><g stroke-width="1" stroke-linejoin="bevel"><path d="M768 380L378 363L746 691Z" fill="#6f5496" stroke="#6f5496"></path><path d="M378 363L418 730L746 691Z" fill="#45396b" stroke="#45396b"></path><path d="M742 0L391 0L378 363Z" fill="#4b3d71" stroke="#4b3d71"></path><path d="M768 380L742 0L378 363Z" fill="#634c8a" stroke="#634c8a"></path><path d="M0 0L0 371L378 363Z" fill="#695090" stroke="#695090"></path><path d="M378 363L0 721L418 730Z" fill="#45396b" stroke="#45396b"></path><path d="M0 721L351 1080L418 730Z" fill="#7c5ba3" stroke="#7c5ba3"></path><path d="M418 730L783 1080L746 691Z" fill="#835fa9" stroke="#835fa9"></path><path d="M351 1080L783 1080L418 730Z" fill="#4b3d71" stroke="#4b3d71"></path><path d="M746 691L1144 364L768 380Z" fill="#7c5ba3" stroke="#7c5ba3"></path><path d="M1177 709L1144 364L746 691Z" fill="#7c5ba3" stroke="#7c5ba3"></path><path d="M768 380L1144 364L742 0Z" fill="#634c8a" stroke="#634c8a"></path><path d="M0 371L0 721L378 363Z" fill="#45396b" stroke="#45396b"></path><path d="M783 1080L1177 709L746 691Z" fill="#57447e" stroke="#57447e"></path><path d="M391 0L0 0L378 363Z" fill="#514177" stroke="#514177"></path><path d="M1563 364L1162 0L1144 364Z" fill="#45396b" stroke="#45396b"></path><path d="M1144 364L1162 0L742 0Z" fill="#7c5ba3" stroke="#7c5ba3"></path><path d="M0 721L0 1080L351 1080Z" fill="#835fa9" stroke="#835fa9"></path><path d="M783 1080L1181 1080L1177 709Z" fill="#514177" stroke="#514177"></path><path d="M1181 1080L1544 713L1177 709Z" fill="#695090" stroke="#695090"></path><path d="M1177 709L1563 364L1144 364Z" fill="#45396b" stroke="#45396b"></path><path d="M1544 713L1563 364L1177 709Z" fill="#4b3d71" stroke="#4b3d71"></path><path d="M1563 364L1565 0L1162 0Z" fill="#6f5496" stroke="#6f5496"></path><path d="M1544 713L1920 394L1563 364Z" fill="#514177" stroke="#514177"></path><path d="M1181 1080L1551 1080L1544 713Z" fill="#7c5ba3" stroke="#7c5ba3"></path><path d="M1920 717L1920 394L1544 713Z" fill="#45396b" stroke="#45396b"></path><path d="M1563 364L1920 0L1565 0Z" fill="#57447e" stroke="#57447e"></path><path d="M1551 1080L1920 717L1544 713Z" fill="#835fa9" stroke="#835fa9"></path><path d="M1920 394L1920 0L1563 364Z" fill="#514177" stroke="#514177"></path><path d="M1551 1080L1920 1080L1920 717Z" fill="#57447e" stroke="#57447e"></path></g></svg>