<svg id="visual" viewBox="0 0 1920 850" width="1920" height="850" xmlns="http://www.w3.org/2000/svg" xmlns:xlink="http://www.w3.org/1999/xlink" version="1.1"><rect x="0" y="0" width="1920" height="850" fill="#45396B"></rect><path d="M0 633L45.7 646.2C91.3 659.3 182.7 685.7 274.2 679.2C365.7 672.7 457.3 633.3 548.8 646.3C640.3 659.3 731.7 724.7 823 718C914.3 711.3 1005.7 632.7 1097 588.2C1188.3 543.7 1279.7 533.3 1371.2 557.8C1462.7 582.3 1554.3 641.7 1645.8 664.2C1737.3 686.7 1828.7 672.3 1874.3 665.2L1920 658L1920 851L1874.3 851C1828.7 851 1737.3 851 1645.8 851C1554.3 851 1462.7 851 1371.2 851C1279.7 851 1188.3 851 1097 851C1005.7 851 914.3 851 823 851C731.7 851 640.3 851 548.8 851C457.3 851 365.7 851 274.2 851C182.7 851 91.3 851 45.7 851L0 851Z" fill="#835FA9" stroke-linecap="round" stroke-linejoin="miter"></path></svg>