<svg id="visual" viewBox="0 0 1920 850" width="1920" height="850" xmlns="http://www.w3.org/2000/svg" xmlns:xlink="http://www.w3.org/1999/xlink" version="1.1"><rect x="0" y="0" width="1920" height="850" fill="#45396B"></rect><path d="M0 660L40 641C80 622 160 584 240 560.8C320 537.7 400 529.3 480 520.7C560 512 640 503 720 525.2C800 547.3 880 600.7 960 641.3C1040 682 1120 710 1200 721.7C1280 733.3 1360 728.7 1440 707.8C1520 687 1600 650 1680 611.3C1760 572.7 1840 532.3 1880 512.2L1920 492L1920 851L1880 851C1840 851 1760 851 1680 851C1600 851 1520 851 1440 851C1360 851 1280 851 1200 851C1120 851 1040 851 960 851C880 851 800 851 720 851C640 851 560 851 480 851C400 851 320 851 240 851C160 851 80 851 40 851L0 851Z" fill="#835FA9" stroke-linecap="round" stroke-linejoin="miter"></path></svg>