<svg id="visual" viewBox="0 0 1920 850" width="1920" height="850" xmlns="http://www.w3.org/2000/svg" xmlns:xlink="http://www.w3.org/1999/xlink" version="1.1"><rect x="0" y="0" width="1920" height="850" fill="#45396B"></rect><defs><linearGradient id="grad1_0" x1="55.7%" y1="0%" x2="100%" y2="100%"><stop offset="4.8235294117647065%" stop-color="#835fa9" stop-opacity="1"></stop><stop offset="95.1764705882353%" stop-color="#835fa9" stop-opacity="1"></stop></linearGradient></defs><defs><linearGradient id="grad1_1" x1="55.7%" y1="0%" x2="100%" y2="100%"><stop offset="4.8235294117647065%" stop-color="#835fa9" stop-opacity="1"></stop><stop offset="95.1764705882353%" stop-color="#6d5294" stop-opacity="1"></stop></linearGradient></defs><defs><linearGradient id="grad1_2" x1="55.7%" y1="0%" x2="100%" y2="100%"><stop offset="4.8235294117647065%" stop-color="#584680" stop-opacity="1"></stop><stop offset="95.1764705882353%" stop-color="#6d5294" stop-opacity="1"></stop></linearGradient></defs><defs><linearGradient id="grad1_3" x1="55.7%" y1="0%" x2="100%" y2="100%"><stop offset="4.8235294117647065%" stop-color="#584680" stop-opacity="1"></stop><stop offset="95.1764705882353%" stop-color="#45396b" stop-opacity="1"></stop></linearGradient></defs><defs><linearGradient id="grad2_0" x1="0%" y1="0%" x2="44.3%" y2="100%"><stop offset="4.8235294117647065%" stop-color="#835fa9" stop-opacity="1"></stop><stop offset="95.1764705882353%" stop-color="#835fa9" stop-opacity="1"></stop></linearGradient></defs><defs><linearGradient id="grad2_1" x1="0%" y1="0%" x2="44.3%" y2="100%"><stop offset="4.8235294117647065%" stop-color="#6d5294" stop-opacity="1"></stop><stop offset="95.1764705882353%" stop-color="#835fa9" stop-opacity="1"></stop></linearGradient></defs><defs><linearGradient id="grad2_2" x1="0%" y1="0%" x2="44.3%" y2="100%"><stop offset="4.8235294117647065%" stop-color="#6d5294" stop-opacity="1"></stop><stop offset="95.1764705882353%" stop-color="#584680" stop-opacity="1"></stop></linearGradient></defs><defs><linearGradient id="grad2_3" x1="0%" y1="0%" x2="44.3%" y2="100%"><stop offset="4.8235294117647065%" stop-color="#45396b" stop-opacity="1"></stop><stop offset="95.1764705882353%" stop-color="#584680" stop-opacity="1"></stop></linearGradient></defs><g transform="translate(1920, 0)"><path d="M0 850C-62.7 841.1 -125.3 832.2 -187.1 819.9C-248.9 807.6 -309.9 792 -368.8 765.8C-427.7 739.6 -484.7 702.9 -518.1 649.7C-551.5 596.5 -561.4 526.9 -600.4 478.8C-639.5 430.8 -707.7 404.4 -742.4 357.5C-777.1 310.7 -778.3 243.5 -790.7 180.5C-803 117.5 -826.5 58.7 -850 0L0 0Z" fill="#4e3f75"></path><path d="M0 637.5C-47 630.8 -94 624.1 -140.4 614.9C-186.7 605.7 -232.4 594 -276.6 574.4C-320.8 554.7 -363.5 527.2 -388.6 487.3C-413.7 447.4 -421.1 395.2 -450.3 359.1C-479.6 323.1 -530.8 303.3 -556.8 268.1C-582.8 233 -583.7 182.6 -593 135.3C-602.3 88.1 -619.9 44.1 -637.5 0L0 0Z" fill="#634c8a"></path><path d="M0 425C-31.3 420.5 -62.7 416.1 -93.6 410C-124.5 403.8 -154.9 396 -184.4 382.9C-213.9 369.8 -242.4 351.4 -259.1 324.9C-275.8 298.3 -280.7 263.4 -300.2 239.4C-319.7 215.4 -353.8 202.2 -371.2 178.8C-388.6 155.3 -389.2 121.7 -395.3 90.2C-401.5 58.7 -413.3 29.4 -425 0L0 0Z" fill="#78599f"></path><path d="M0 212.5C-15.7 210.3 -31.3 208 -46.8 205C-62.2 201.9 -77.5 198 -92.2 191.5C-106.9 184.9 -121.2 175.7 -129.5 162.4C-137.9 149.1 -140.4 131.7 -150.1 119.7C-159.9 107.7 -176.9 101.1 -185.6 89.4C-194.3 77.7 -194.6 60.9 -197.7 45.1C-200.8 29.4 -206.6 14.7 -212.5 0L0 0Z" fill="#835fa9"></path></g><g transform="translate(0, 850)"><path d="M0 -850C60.2 -833.3 120.3 -816.7 184.2 -807.2C248.2 -797.8 315.9 -795.7 368.8 -765.8C421.7 -736 459.7 -678.4 506.9 -635.6C554.1 -592.9 610.5 -564.9 656 -523.1C701.4 -481.3 735.8 -425.6 764 -367.9C792.3 -310.3 814.4 -250.6 827.7 -188.9C841 -127.3 845.5 -63.6 850 0L0 0Z" fill="#4e3f75"></path><path d="M0 -637.5C45.1 -625 90.2 -612.5 138.2 -605.4C186.1 -598.4 236.9 -596.8 276.6 -574.4C316.3 -552 344.8 -508.8 380.2 -476.7C415.6 -444.7 457.9 -423.7 492 -392.3C526 -361 551.8 -319.2 573 -276C594.2 -232.7 610.8 -187.9 620.8 -141.7C630.8 -95.4 634.1 -47.7 637.5 0L0 0Z" fill="#634c8a"></path><path d="M0 -425C30.1 -416.7 60.2 -408.3 92.1 -403.6C124.1 -398.9 158 -397.8 184.4 -382.9C210.8 -368 229.8 -339.2 253.4 -317.8C277.1 -296.4 305.3 -282.5 328 -261.6C350.7 -240.6 367.9 -212.8 382 -184C396.1 -155.1 407.2 -125.3 413.9 -94.5C420.5 -63.6 422.8 -31.8 425 0L0 0Z" fill="#78599f"></path><path d="M0 -212.5C15 -208.3 30.1 -204.2 46.1 -201.8C62 -199.5 79 -198.9 92.2 -191.5C105.4 -184 114.9 -169.6 126.7 -158.9C138.5 -148.2 152.6 -141.2 164 -130.8C175.3 -120.3 183.9 -106.4 191 -92C198.1 -77.6 203.6 -62.6 206.9 -47.2C210.3 -31.8 211.4 -15.9 212.5 0L0 0Z" fill="#835fa9"></path></g></svg>