<svg id="visual" viewBox="0 0 1920 850" width="1920" height="850" xmlns="http://www.w3.org/2000/svg" xmlns:xlink="http://www.w3.org/1999/xlink" version="1.1"><path d="M0 239L29.2 227.7C58.3 216.3 116.7 193.7 174.8 186.7C233 179.7 291 188.3 349.2 191.2C407.3 194 465.7 191 523.8 209.3C582 227.7 640 267.3 698.2 280.2C756.3 293 814.7 279 872.8 247.8C931 216.7 989 168.3 1047.2 155.5C1105.3 142.7 1163.7 165.3 1221.8 181C1280 196.7 1338 205.3 1396.2 192.7C1454.3 180 1512.7 146 1570.8 140.3C1629 134.7 1687 157.3 1745.2 158.7C1803.3 160 1861.7 140 1890.8 130L1920 120L1920 0L1890.8 0C1861.7 0 1803.3 0 1745.2 0C1687 0 1629 0 1570.8 0C1512.7 0 1454.3 0 1396.2 0C1338 0 1280 0 1221.8 0C1163.7 0 1105.3 0 1047.2 0C989 0 931 0 872.8 0C814.7 0 756.3 0 698.2 0C640 0 582 0 523.8 0C465.7 0 407.3 0 349.2 0C291 0 233 0 174.8 0C116.7 0 58.3 0 29.2 0L0 0Z" fill="#45396b"></path><path d="M0 307L29.2 311.3C58.3 315.7 116.7 324.3 174.8 318.7C233 313 291 293 349.2 290.2C407.3 287.3 465.7 301.7 523.8 330C582 358.3 640 400.7 698.2 402C756.3 403.3 814.7 363.7 872.8 325.5C931 287.3 989 250.7 1047.2 243.7C1105.3 236.7 1163.7 259.3 1221.8 284.8C1280 310.3 1338 338.7 1396.2 335.8C1454.3 333 1512.7 299 1570.8 277.7C1629 256.3 1687 247.7 1745.2 247.7C1803.3 247.7 1861.7 256.3 1890.8 260.7L1920 265L1920 118L1890.8 128C1861.7 138 1803.3 158 1745.2 156.7C1687 155.3 1629 132.7 1570.8 138.3C1512.7 144 1454.3 178 1396.2 190.7C1338 203.3 1280 194.7 1221.8 179C1163.7 163.3 1105.3 140.7 1047.2 153.5C989 166.3 931 214.7 872.8 245.8C814.7 277 756.3 291 698.2 278.2C640 265.3 582 225.7 523.8 207.3C465.7 189 407.3 192 349.2 189.2C291 186.3 233 177.7 174.8 184.7C116.7 191.7 58.3 214.3 29.2 225.7L0 237Z" fill="#54427a"></path><path d="M0 503L29.2 508.7C58.3 514.3 116.7 525.7 174.8 503C233 480.3 291 423.7 349.2 401C407.3 378.3 465.7 389.7 523.8 420.8C582 452 640 503 698.2 524.2C756.3 545.3 814.7 536.7 872.8 505.5C931 474.3 989 420.7 1047.2 417.8C1105.3 415 1163.7 463 1221.8 498.3C1280 533.7 1338 556.3 1396.2 545C1454.3 533.7 1512.7 488.3 1570.8 470C1629 451.7 1687 460.3 1745.2 463.2C1803.3 466 1861.7 463 1890.8 461.5L1920 460L1920 263L1890.8 258.7C1861.7 254.3 1803.3 245.7 1745.2 245.7C1687 245.7 1629 254.3 1570.8 275.7C1512.7 297 1454.3 331 1396.2 333.8C1338 336.7 1280 308.3 1221.8 282.8C1163.7 257.3 1105.3 234.7 1047.2 241.7C989 248.7 931 285.3 872.8 323.5C814.7 361.7 756.3 401.3 698.2 400C640 398.7 582 356.3 523.8 328C465.7 299.7 407.3 285.3 349.2 288.2C291 291 233 311 174.8 316.7C116.7 322.3 58.3 313.7 29.2 309.3L0 305Z" fill="#634c8a"></path><path d="M0 732L29.2 737.7C58.3 743.3 116.7 754.7 174.8 759C233 763.3 291 760.7 349.2 757.8C407.3 755 465.7 752 523.8 754.8C582 757.7 640 766.3 698.2 762.2C756.3 758 814.7 741 872.8 732.5C931 724 989 724 1047.2 725.3C1105.3 726.7 1163.7 729.3 1221.8 736.3C1280 743.3 1338 754.7 1396.2 750.5C1454.3 746.3 1512.7 726.7 1570.8 722.5C1629 718.3 1687 729.7 1745.2 736.7C1803.3 743.7 1861.7 746.3 1890.8 747.7L1920 749L1920 458L1890.8 459.5C1861.7 461 1803.3 464 1745.2 461.2C1687 458.3 1629 449.7 1570.8 468C1512.7 486.3 1454.3 531.7 1396.2 543C1338 554.3 1280 531.7 1221.8 496.3C1163.7 461 1105.3 413 1047.2 415.8C989 418.7 931 472.3 872.8 503.5C814.7 534.7 756.3 543.3 698.2 522.2C640 501 582 450 523.8 418.8C465.7 387.7 407.3 376.3 349.2 399C291 421.7 233 478.3 174.8 501C116.7 523.7 58.3 512.3 29.2 506.7L0 501Z" fill="#735599"></path><path d="M0 851L29.2 851C58.3 851 116.7 851 174.8 851C233 851 291 851 349.2 851C407.3 851 465.7 851 523.8 851C582 851 640 851 698.2 851C756.3 851 814.7 851 872.8 851C931 851 989 851 1047.2 851C1105.3 851 1163.7 851 1221.8 851C1280 851 1338 851 1396.2 851C1454.3 851 1512.7 851 1570.8 851C1629 851 1687 851 1745.2 851C1803.3 851 1861.7 851 1890.8 851L1920 851L1920 747L1890.8 745.7C1861.7 744.3 1803.3 741.7 1745.2 734.7C1687 727.7 1629 716.3 1570.8 720.5C1512.7 724.7 1454.3 744.3 1396.2 748.5C1338 752.7 1280 741.3 1221.8 734.3C1163.7 727.3 1105.3 724.7 1047.2 723.3C989 722 931 722 872.8 730.5C814.7 739 756.3 756 698.2 760.2C640 764.3 582 755.7 523.8 752.8C465.7 750 407.3 753 349.2 755.8C291 758.7 233 761.3 174.8 757C116.7 752.7 58.3 741.3 29.2 735.7L0 730Z" fill="#835fa9"></path></svg>