<svg id="visual" viewBox="0 0 1920 450" width="1920" height="450" xmlns="http://www.w3.org/2000/svg" xmlns:xlink="http://www.w3.org/1999/xlink" version="1.1"><rect x="0" y="0" width="1920" height="450" fill="#45396B"></rect><path d="M0 364L45.7 351.2C91.3 338.3 182.7 312.7 274.2 318.3C365.7 324 457.3 361 548.8 369.3C640.3 377.7 731.7 357.3 823 357.2C914.3 357 1005.7 377 1097 379.3C1188.3 381.7 1279.7 366.3 1371.2 365.2C1462.7 364 1554.3 377 1645.8 372.5C1737.3 368 1828.7 346 1874.3 335L1920 324L1920 451L1874.3 451C1828.7 451 1737.3 451 1645.8 451C1554.3 451 1462.7 451 1371.2 451C1279.7 451 1188.3 451 1097 451C1005.7 451 914.3 451 823 451C731.7 451 640.3 451 548.8 451C457.3 451 365.7 451 274.2 451C182.7 451 91.3 451 45.7 451L0 451Z" fill="#835FA9" stroke-linecap="round" stroke-linejoin="miter"></path></svg>