<svg id="visual" viewBox="0 0 1920 400" width="1920" height="400" xmlns="http://www.w3.org/2000/svg" xmlns:xlink="http://www.w3.org/1999/xlink" version="1.1"><rect x="0" y="0" width="1920" height="400" fill="#45396B"></rect><path d="M0 84L45.7 85.2C91.3 86.3 182.7 88.7 274.2 92C365.7 95.3 457.3 99.7 548.8 85C640.3 70.3 731.7 36.7 823 38.3C914.3 40 1005.7 77 1097 101.3C1188.3 125.7 1279.7 137.3 1371.2 143.8C1462.7 150.3 1554.3 151.7 1645.8 140C1737.3 128.3 1828.7 103.7 1874.3 91.3L1920 79L1920 0L1874.3 0C1828.7 0 1737.3 0 1645.8 0C1554.3 0 1462.7 0 1371.2 0C1279.7 0 1188.3 0 1097 0C1005.7 0 914.3 0 823 0C731.7 0 640.3 0 548.8 0C457.3 0 365.7 0 274.2 0C182.7 0 91.3 0 45.7 0L0 0Z" fill="#835FA9" stroke-linecap="round" stroke-linejoin="miter"></path></svg>