<?xml version="1.0" encoding="utf-8"?>
<!-- Generator: Adobe Illustrator 23.0.3, SVG Export Plug-In . SVG Version: 6.00 Build 0)  -->
<svg version="1.1" id="Capa_1" xmlns="http://www.w3.org/2000/svg" xmlns:xlink="http://www.w3.org/1999/xlink" x="0px" y="0px"
	 viewBox="0 0 625 650" style="enable-background:new 0 0 625 650;" xml:space="preserve">
<style type="text/css">
	.st0{fill:#0071BC;}
	.st1{fill:#1D0F02;}
	.st2{fill:#544744;}
	.st3{fill:#CAC8C8;}
	.st4{fill:#403634;}
	.st5{fill:#403535;}
	.st6{fill:#EFEDEC;}
	.st7{fill:#AFACA8;}
	.st8{fill:#1C0F04;}
	.st9{fill:#1D0F01;}
	.st10{fill:#CBC8C6;}
	.st11{fill:#CAC8C7;}
	.st12{fill:#E4DED7;}
	.st13{fill:#E1DAD6;}
	.st14{fill:#292726;}
	.st15{fill:#E9E6DB;}
	.st16{fill:#181518;}
	.st17{fill:#151516;}
	.st18{fill:#2C2825;}
	.st19{fill:#2B2726;}
	.st20{fill:#0B0909;}
	.st21{fill:#080503;}
	.st22{fill:#030303;}
	.st23{fill:#020202;}
	.st24{fill:#FEFEFE;}
	.st25{fill:#F3F3F3;}
	.st26{fill:#F9F9F9;}
</style>
<g>
	<path class="st0" d="M488.61,66.88c41.7,37.2,69.21,81.79,79.51,134.73c13.28,68.22-0.61,131.49-43.77,188.45
		c-43.12,56.9-102.21,91.37-175.99,102.7c-63.25,9.71-123.36-0.56-178.62-31.16c-63.58-35.2-106.27-86.12-123.35-152.96
		c-23.83-93.23,2.6-174.14,75.87-241.77c1.09,0.63,1.7,1.61,1.95,2.7c3.74,16.62,15.42,28.93,26.32,41.65
		c8.96,10.45,18.61,20.43,20.59,34.58c0.74,5.31,4.64,8.78,10.88,8.93c4.71,0.11,6.84,2.4,7.51,6.52c1.48,9.09,1.76,18.1-0.38,27.18
		c-3.74,15.87-6.14,31.67-5.03,48.24c0.92,13.68,0.23,28.13-9.66,40.23c-3.47,4.25-5.12,9.48-5.75,14.69
		c0.56,0.5,0.93,0.44,1.44,0.18c2.79-1.42,5.41-5.97,8.24-3.76c3.15,2.45-0.67,6.09-2.13,8.96c-6.57,12.97-12.58,26.02-11.63,40.86
		c0.29,4.56,1.2,8.75,4.57,12.87c2.69-4.07,1.1-9.64,7.39-13.71c1.99,14.74,0.54,28.75,4.18,42.25
		c3.73,13.87,7.92,27.55,13.85,40.73c5.81,12.92,11.66,25.84,19.22,37.11c-2.91-14.88-6.6-30.48-8.69-46.34
		c-0.2-1.54-0.68-3.06-0.56-4.64c0.09-1.34,0.2-2.99,1.68-3.43c2.25-0.66,2.73,1.42,3.31,2.71c3.51,7.81,6.41,15.85,10.21,23.55
		c6.76,13.67,14.78,26.52,27.86,35.97c1.85,1.33,3.57,3.02,6.79,3.15c-1.87-6.18-5.81-11.23-8.28-16.86
		c-1.37-3.12-5.71-7.25-2.23-9.44c3.49-2.2,6.2,2.81,8.53,5.43c5.88,6.63,13.1,11.75,20.78,16.35c3.45,2.07,7.31,3.39,11.44,3.79
		c1.63,0.16,3.7,0.7,4.71-0.75c1.14-1.62-0.69-2.85-1.68-4.02c-8.05-9.46-15.11-19.54-21.77-29.87c-2.47-3.83-4.63-7.81-6.53-11.9
		c-0.66-1.42-1.48-3.14-0.17-4.42c1.78-1.74,3.64-0.21,5.13,0.66c11.09,6.45,19.73,14.83,23.51,26.54c1.41,0.32,1.62-0.41,1.86-1.01
		c3.98-9.56,4.05-9.62,11.63-1.92c3.02,3.06,5.6,2.96,8.3-0.17c0.75-0.87,1.37-1.83,2.11-2.71c4.02-4.73,5.37-4.51,8.07,1.23
		c0.75,1.59,1.03,3.38,2.67,5.23c4.24-11.67,12.3-20.23,23.07-26.68c2.14-1.28,4.56-3.59,7.08-1.73c2.62,1.94,0.55,4.56-0.52,6.69
		c-6.89,13.82-16.02,26.35-25.96,38.41c-1.36,1.65-4.39,3.43-2.8,5.56c1.66,2.24,4.93,0.89,7.39,0.31
		c9.95-2.35,17.01-8.91,24.48-14.83c3.29-2.6,6.04-5.72,8.84-8.78c1.08-1.17,2.58-2.63,4.27-1.81c2.23,1.1,1.18,3.18,0.45,4.73
		c-3.09,6.53-6.76,12.8-10.1,19.22c-0.4,0.77-1.04,1.55-0.24,2.81c7.32-2.32,12.36-7.36,17.02-12.72
		c11.93-13.72,19.36-29.63,25.73-46.05c0.98-2.54,1.32-7.23,4.61-6.46c3.69,0.87,2,5.27,1.56,8.24
		c-2.33,15.86-5.96,31.51-8.65,46.37c4.25-8.4,9.72-17.28,14.19-26.66c9.67-20.28,17.22-41.13,20.86-63.04
		c1.34-8.07,3.07-16.24,1.66-24.54c-0.3-1.78-0.5-4.27,1.47-4.73c2.67-0.63,3.25,2.04,3.98,3.86c1.05,2.65,0.81,5.66,2.72,8.73
		c3.61-5.83,5.55-11.51,4.82-17.93c-1.4-12.35-5.42-23.93-11.65-34.88c-0.56-0.99-1.17-1.96-1.59-2.99
		c-0.99-2.4-3.86-5.29-1.34-7.28c2.72-2.14,4.85,1.49,7.2,2.68c0.8,0.4,1.38,1.26,2.83,0.87c-1.3-7.35-4.53-13.97-9.42-19.78
		c-3.7-4.39-5.98-9.23-6.34-14.64c-0.59-8.83-2.22-17.49-1.05-26.56c1.81-14.05-1.65-27.93-5.1-41.6
		c-2.34-9.29-2.06-18.51-0.55-27.83c0.67-4.14,2.86-6.36,7.54-6.49c6.63-0.18,10.15-4.05,11.07-9.6
		c1.9-11.52,8.25-20.62,16.33-29.19c8.37-8.89,15.69-18.57,22.81-28.37C483.77,81.2,484.08,73.24,488.61,66.88z"/>
	<path class="st1" d="M491.72,69.14c-1.03,10.78-6.11,20.07-12.87,28.57c-6.69,8.42-13.65,16.66-20.81,24.74
		c-6.34,7.16-11.27,14.63-12.84,24.12c-1.62,9.86-4.6,11.81-14.97,12.1c-2.58,0.07-3.25,0.97-3.6,3.03
		c-1.67,9.7-2.64,19.23,0.11,29.07c4.29,15.33,6.67,30.88,4.89,46.91c-1.06,9.52,0.82,19.08,2.81,28.49
		c0.52,2.46,2.21,4.32,3.94,6.24c6.95,7.7,10.44,16.19,11.11,26.89c-4.25-3.26-8.08-6.2-12.83-9.85
		c9.98,22.54,25.95,43.55,9.37,69.02c-3.38-5.74-2.05-11.86-5.63-16.77c-0.1,40.35-18.68,96.55-40.94,122.74
		c2.56-20.31,8.36-39.22,10.13-60.6c-12.35,27.73-20.5,55.93-50.27,70.16c-0.69-0.36-1.37-0.72-2.06-1.07
		c4.84-9.42,9.67-18.85,14.51-28.27c-7.64,6.2-14.08,13.26-22.15,18.71c-8.24,5.57-16.8,10.11-29,7.72
		c13.57-17.02,27.03-33.2,35.7-52.23c-10.5,1.88-19.71,11.48-31.03,32.23c-2.67-4.31-4.24-8.86-5.76-13.91
		c-3.34,1.93-3.94,5.41-5.95,7.89c-3.49,4.32-6.63,4.77-9.93-0.01c-1.78-2.58-3.51-5.18-5.66-8.36c-2.09,5.2-3.92,9.77-5.75,14.34
		c-4.52-15.08-15.62-24.47-30.44-33.12c7.31,15.1,15.99,27.7,25.58,39.81c2.55,3.23,5.33,6.3,7.9,9.52
		c2.37,2.97,2.16,4.53-2.52,4.68c-8.73,0.27-15.79-3.28-22.49-7.74c-8.58-5.71-15.62-12.97-23.85-21.78
		c4.15,11.76,10.65,20.4,14.99,30.65c-5.34,0.14-8.92-2.22-12.32-4.78c-16.44-12.4-25.09-29.5-32.75-47.16
		c-2.22-5.11-4.14-10.33-6.66-15.38c1.29,19.45,6.7,38.3,9.65,57.93c-19.01-16.79-40.64-81.6-40.86-122.11
		c-3.33,5.18-3.13,10.64-4.86,16.46c-5.04-4.92-7.48-10.3-8.01-16.57c-1.11-13.1,3.36-25.02,8.97-36.69
		c2.23-4.64,4.66-9.19,7.88-15.49c-5.31,3.99-9.15,6.87-13.72,10.3c1.11-8.06,2.36-15.27,7.04-21.02
		c9.92-12.17,10.24-26.46,9.48-40.24c-0.94-16.95,1.07-33.31,5.52-49.53c2.59-9.42,0.95-18.54-0.43-27.78
		c-0.38-2.57-2.15-2.5-4.22-2.11c-7.51,1.38-12.29-2.47-13.05-8.45c-2.26-17.71-15.55-29.08-26.29-42
		c-9.84-11.83-19.8-23.61-21.42-39.3c0.61-17.56,7.84-25.71,26.33-29.84c6.55-1.46,13.2-2.1,19.9-2.44
		c6.76-1.83,13.7-1.8,20.65-1.73c13.14,0.12,25.59-3.32,38.09-6.47c5.79-1.46,11.51-3.22,17.48-3.9
		c17.72-2.04,28.64,6.5,29.61,23.06c0.21,3.56,0.12,7.12-0.09,10.68c-0.19,3.2,1.29,4.29,4.75,4.08
		c17.48-1.08,34.97-1.32,52.44,0.15c3.7,0.31,5.45-0.76,5.25-4.35c-0.25-4.44-0.44-8.9,0.14-13.34
		c1.8-13.73,10.96-20.96,25.83-20.55c4.61,0.13,9.01,1.17,13.4,2.33c18.26,4.8,36.52,9.53,55.83,8.36
		c3.63-0.22,7.09,0.92,10.59,1.68c6.94,0.3,13.81,1.05,20.57,2.6C483.92,43.55,491.21,52,491.72,69.14z"/>
	<path class="st0" d="M445.55,36.86c-23.26,1.67-45.78-1.73-67.83-8.45c-2.49-0.76-5.07-1.37-7.66-1.77
		c-17.26-2.68-27.98,5.51-28.33,21.73c-0.09,3.99-0.27,8.12,0.71,11.94c1.21,4.71-0.54,5.31-4.9,4.76
		c-19.57-2.45-39.17-2.46-58.74,0.07c-3.76,0.49-5.23-0.13-4.33-4.13c0.87-3.87,0.96-7.95,0.92-11.93
		c-0.18-17.23-11.59-25.81-29.74-22.1c-10.26,2.1-20.37,4.89-30.53,7.42c-14.34,3.57-28.98,2.43-43.55,2.46
		c27.13-14.69,55.95-25.34,86.91-30.49C320.31-3.93,379.21,4,434.84,31.45C438.44,33.22,441.99,35.06,445.55,36.86z"/>
	<path class="st2" d="M426.56,261.86c-9.77-3.94-18.45-8.12-28.59-10.24c2.62-4.03,8.06-4.26,10.8-8.26
		c-18.71-1.31-34.67-8.02-49.64-17.57c-10.88-6.94-22.38-4.67-34.82,6.13c-4.35,3.78-8.53,7.92-11.82,12.49
		c-3.22,4.48-4.26,2.64-6.65-0.47c-7.2-9.35-15.82-17.18-27.94-21.08c-6.22-2-11.75-1.19-17.02,2.21
		c-15.28,9.86-31.63,17.21-51.37,18.24c3.29,4.08,9.13,4.04,12.02,8.43c-11.01,1.96-20.62,6.22-31.35,11.33
		c4.05-21.35-1.53-42.17,4.67-62.28c4.44-14.37,5.68-28.67,1.57-43.22c-0.69-2.45,0.43-4.17,2.12-5.98
		c9.41-10.04,18.68-20.19,26.87-31.16c6.85-9.18,12.39-18.8,15.73-29.65c2.95-9.59,10.71-19.85,27.39-19.04
		c15.73,0.77,31.33-3.48,47.22-2.54c13.6,0.81,27.09,2.54,40.73,3.16c10.28,0.47,16.35,8.47,18.95,17.16
		c5.14,17.17,15.78,31.24,27.33,44.91c3.39,4.01,7.06,7.86,10.84,11.56c5.11,5,8.61,10,6,17.56c-4.53,13.09-0.19,25.9,2.98,38.59
		c3.46,13.84,2.5,27.83,2.58,41.8C425.21,249.66,425.09,255.38,426.56,261.86z"/>
	<path class="st3" d="M414.32,420.74c2.75-17.34,4.98-34.48,3.86-51.82c-0.3-4.68-0.99-9.3-2.63-13.76c-0.8-2.19-2.23-3.58-4.82-2.7
		c-2.33,0.79-2.27,2.68-1.52,4.46c3.73,8.9,1.14,17.53-1.22,26.17c-5.9,21.62-13.1,42.8-25.77,61.99c-1.26,1.91-1.77,4.73-5.81,5.05
		c4.97-10.63,9.13-21.13,10.66-32.3c0.45-3.29,0.43-6.66,0.27-9.98c-0.09-1.85-1.22-3.51-3.6-3.44c-2.41,0.08-3.22,1.6-3.11,3.66
		c0.39,7.19,0.03,13.98-5.16,20.21c-11.18,13.39-22.3,26.7-39.62,34.54c1.79-2.35,3.63-4.68,5.38-7.06
		c14.41-19.59,27.17-39.89,31.31-63.81c0.45-2.62,0.51-5.31,0.81-7.95c0.44-3.79,0-6.62-5.45-5.87c-5.53,0.76-3.4-2.8-2.81-5.02
		c3.88-14.55,6.34-29.26,5.42-44.29c-0.68-11.01-2.87-21.78-10.31-30.77c-6.28-7.6-14.08-14.17-21.34-20.79
		c-10.62-9.68-25.69-9.9-40.13-7.99c-8.41,1.11-18.01,2.52-22.35,9.33c-7.46,11.72-21.75,18.58-25.32,33.02
		c-3.9,15.76-3.66,31.35-0.69,47.06c1.2,6.33,2.76,12.6,4.16,18.9c-10.58,1.44-10.53,1.43-8.87,12.06
		c3.59,23.06,15.17,42.92,28.71,62.01c2.63,3.71,5.52,7.26,8.84,11.61c-4.84-0.61-7.73-3.15-10.65-5.29
		c-12.74-9.36-22.78-20.99-31.94-33.32c-3.37-4.53-2.51-9.81-2.63-14.89c-0.05-2.12,0.82-4.94-2.7-5.23
		c-3.86-0.32-3.94,2.76-4.03,5.09c-0.5,12.77,4.13,24.47,8.92,36.15c0.86,2.1,3.2,4.03,1.5,7.03
		c-18.4-25.15-27.44-53.34-33.96-82.42c-0.96-4.25,0.26-8.42,1.49-12.51c0.66-2.18,1.7-4.59-1.71-5.44
		c-3.25-0.81-4.04,1.58-4.69,3.81c-3.87,13.38-2.81,26.95-1.55,40.48c0.84,8.98,2.2,17.92,2.81,26.95
		c-12.75-29.69-23.56-59.69-16.71-92.44c2.09-9.99,6.08-19.19,13.94-26.59c1.66-1.57,3.01-3.28,1.16-5.17
		c-2.26-2.32-4.3-0.63-6.12,0.95c-3.55,3.07-6.86,6.52-8.53,10.65c-3.51,8.66-12.02,14.33-15.24,23.11
		c2.77-20.32,12.83-37.75,24.61-54.47c1.76-2.5,5.07-3.29,8.06-4.1c2.34-0.63,5.32-0.92,4.48-3.94c-0.91-3.27-4.12-2.57-6.63-1.9
		c-6.08,1.63-11.19,5.01-16.31,8.31c-0.89,0.57-1.8,1.12-2.98,1.37c3.61-5.92,9.13-10,15.32-13.2c12.98-6.72,26.87-10.58,41.87-10.4
		c3.41,0.04,6.66-0.57,9.84-1.68c2.24-0.79,3.98-2,3.07-4.44c-0.95-2.57-3.15-2.23-5.33-1.42c-6.71,2.48-13.06,1.4-20.44-1.88
		c13.9-3.05,25.27-8.65,35.82-15.89c5.54-3.8,11.35-2.63,16.95,0.21c8.87,4.5,15.19,11.47,21.06,18.85
		c4.71,5.93,9.89,5.96,14.71-0.04c5.48-6.82,11.34-13.29,19.22-17.85c8.37-4.85,13.91-4.67,21.81,0.71
		c9.59,6.53,20.04,11.32,33.03,13.88c-7.23,3.28-13.42,4.48-20.08,2.23c-2.34-0.79-4.86-1.76-5.93,1.31
		c-1.04,2.96,1.64,3.82,3.89,4.6c3.18,1.11,6.49,1.37,9.9,1.41c17,0.19,32.54,4.83,46.52,13.77c2.82,1.8,5.91,3.68,6.19,8.15
		c-5.47-3.57-10.36-6.67-16.15-8.06c-2.3-0.55-5.18-1.1-6.08,1.79c-0.96,3.08,1.73,3.46,4.22,3.99c5.2,1.11,8.66,4.14,11.4,8.43
		c8.23,12.85,15.82,25.95,19.99,40.51c0.43,1.5,0.77,3.03,1,4.57c0.08,0.56-0.27,1.17-0.74,2.95c-3.46-7.36-9.81-11.66-12.65-18.4
		c-2.28-5.4-6.01-10.14-10.84-13.97c-1.58-1.25-3.37-1.74-5.11-0.13c-1.51,1.4-1.18,2.84,0.1,4.12
		c18.08,18.13,18.53,40.21,15.99,62.78c-2.05,18.27-7.99,35.66-15.33,52.65C416.7,419.73,416.53,420.71,414.32,420.74z"/>
	<path class="st3" d="M326.15,433.82c-1.32-4.6-1.39-8.12-0.76-11.66c0.42-2.38,1.48-4.75-2.56-5.65s-3.51,2.08-4.26,3.82
		c-2.84,6.55-5.33,13.24-9.74,19.9c-5.32-6.27-7.3-13.34-10.36-19.91c-0.81-1.74-0.18-4.7-4.25-3.82c-4.12,0.89-3.04,3.39-2.58,5.65
		c0.73,3.58,0.44,7.06-0.68,11.42c-8.95-10.53-19.71-18.22-31.76-24.48c-3.17-1.65-8.16-20.25-6.89-23.23
		c0.73-1.72,2.23-1.34,3.55-1.38c2.38-0.07,4.77-0.02,8.03-0.02c-3.85-13.31-7.72-26.21-8.55-40.24c9.07,3.34,17.67,5.31,26,8.92
		c19.66,8.52,39.88,8.23,59.15-2.28c6.93-3.78,15.1-3.91,22.95-7.49c-0.75,14.35-4.41,27.37-8.51,40.23
		c0.68,0.36,1.04,0.72,1.41,0.73c11.18,0.45,10.86,0.4,8.96,10.72c-1.45,7.84-4.37,13.68-12.91,17.43
		C341.95,417.05,333.65,424.65,326.15,433.82z"/>
	<path class="st2" d="M350.14,41.1c4.19-8.11,11.18-10.84,22.14-7.52c22.57,6.83,45.44,10.17,69.2,9.19
		c6.81-0.28,13.76,1.23,20.56,2.37c20.69,3.47,26.78,16.05,20.21,34.01c-3.89,10.65-12.08,19.08-19.34,27.88
		c-5.38,6.52-11.1,12.79-16.39,19.36c-3.91,4.85-6.94,10.13-6.99,16.48c-0.01,1.29-0.64,2.59-1.09,3.85
		c-0.88,2.47-1.29,6.16-4.62,5.93c-4.12-0.27-2.53-4.14-2.63-6.53c-0.4-9.33-5.52-16.86-10.52-24.42
		c-6.76-10.2-14.78-19.66-19.96-30.79c-3.26-7-5.53-14.17-7.03-21.59c-2.34-11.53-9.19-20.49-19.05-27.29
		C367.61,37.21,359.45,37.21,350.14,41.1z"/>
	<path class="st2" d="M266.72,40.19c-21.08-4.06-38.1,5.89-42.72,27.05c-4.23,19.36-13.97,35.65-25.54,51.61
		c-6.65,9.18-13.42,18.62-12.6,30.59c0.1,1.4-0.33,2.85-1.87,3.31c-2.05,0.61-3.06-0.85-3.76-2.32c-0.77-1.62-1.87-3.29-1.95-4.98
		c-0.67-13.29-10.14-22.1-18.26-31.67c-9.74-11.49-21.12-22.12-25.77-36.57c-4.98-15.43-0.37-25.88,15.25-30.91
		c9.74-3.13,19.98-3.62,29.76-3.39c22.16,0.51,43.28-3.1,64.26-9.03C254.85,30.7,260.91,32.61,266.72,40.19z"/>
	<path class="st3" d="M363.83,330.11c1.63,4.75-1.26,7.57-7.42,9.25c-10.64,2.9-21.16,5.77-32.43,4.07
		c-11.16-1.68-16.16-9.86-11.98-19.56c0.5-1.16,1.27-1.62,2.55-1.95c14.2-3.59,22.42-13.25,28.04-24.95
		c2.19-4.56,3.91-3.12,6.54-1.04C360.09,304.59,362.81,316.37,363.83,330.11z"/>
	<path class="st3" d="M254.79,331.17c0.97-13.72,3.44-25.09,13.27-33.96c3.1-2.8,4.82-3.88,7.41,1.02
		c5.62,10.63,13.94,19.2,26.5,23.15c2.59,0.81,3.11,1.98,3.29,4.25c1.13,13.95-3.66,18.72-19.06,18.42
		c-7.96-0.16-15.65-1.86-23.26-3.99C257.1,338.42,252.07,336.59,254.79,331.17z"/>
	<path class="st4" d="M191.62,147.68c2.8-10.97,7.81-19.75,14.16-27.77c12.2-15.38,21.13-32.04,24.75-50.95
		c1.45-7.55,6.51-13.26,11.54-18.83c3.7-4.1,8.9-5.59,14.83-5.1c10.12,0.84,15.15,9.56,10.35,17.86c-1.75,3.02-4.99,2.91-7.42,3.18
		c-13.33,1.52-21.03,9.98-24.06,20.29c-5.83,19.83-19.06,34.95-32.43,50.25C200.1,140.33,197.58,144.79,191.62,147.68z"/>
	<path class="st5" d="M424.02,147.2c-9.64-7.68-15.69-17.06-22.95-25.43c-9.39-10.82-15.81-23.09-20.4-36.39
		c-3.53-10.24-10.63-17.63-23.23-19.25c-8.06-1.04-8.83-2.9-8.64-12.32c0.13-6.32,5.25-7.63,10.02-8.52
		c8.52-1.59,14.77,2.67,19.77,8.47c4.54,5.27,7.83,11.32,8.9,18c2.61,16.21,10.67,30.11,20.34,43.43
		c3.88,5.34,7.65,10.74,11.22,16.26C421.95,135.94,424.2,140.73,424.02,147.2z"/>
	<path class="st6" d="M308.42,288.34c-6.25,0.16-12.37-0.5-18.24-2.61c-2.01-0.72-4.27-1.53-4.49-3.79
		c-0.24-2.41,2.05-3.45,4.02-4.08c12.6-4.07,25.24-4,37.83,0.06c1.78,0.58,3.68,1.58,3.84,3.57c0.19,2.46-2.13,3.33-4.05,4.08
		C321.3,287.94,314.9,288.45,308.42,288.34z"/>
	<path class="st7" d="M289.86,350.12c0.94-0.09,2.02,0.06,2.8-0.31c11.7-5.64,23.24-4.23,34.54,1.38
		C314.88,355.05,302.33,354.76,289.86,350.12z"/>
	<path class="st8" d="M277.53,140.6c1.34-2.97-2.74-6.49,0.68-7.63c2.53-0.84,5.51,2.1,7.55,4.22c4.99,5.2,7.18,11.37,6.95,18.35
		c-0.09,2.75-0.94,6.06,4.2,5.92c3.83-0.1,3.14,2.7,2.81,4.82c-1.53,9.68-14.66,18.23-25.2,16.64c-2.28-0.34-3.56-1.06-3.44-3.31
		c0.04-0.67,0.04-1.33,0.03-2c-0.23-17.66-8.19-23.37-27.18-19.57c-10.29,2.06-20.34,4.81-30.07,8.56
		c-2.21,0.85-5.42,3.16-6.41-0.69c-1-3.9-6.88-7.63-2-11.84c2.57-2.21,4.1-4.09,3.72-7.24c-0.05-0.44-0.18-1.14,0.05-1.3
		c5.01-3.34,10.04-6.63,10.19-13.19c1.16,0.05,2.44-0.18,3.46,0.19c3.05,1.12,5.22,0.84,7.39-1.86c2.27-2.82,6.37-0.5,9.46-1.85
		c-0.46-2.69-4.03-2.23-4.96-4.32C247.35,117.91,262.03,123.35,277.53,140.6z"/>
	<path class="st8" d="M377.37,129.2c4.27,0.39,8.94,2.79,11.19,2.72c8.11-0.24,11.44,2.39,12.08,9.32
		c10.21,0.05,5.51,11.09,12.28,14.58c2.32,1.2-1.79,7.62-3.95,11.14c-1.61,2.63-4.27,0.13-6.34-0.57
		c-13.01-4.41-25.92-9.19-40.13-8.99c-11.73,0.16-16.62,4.69-16.61,15.43c0.01,10.45-4.58,13.03-15.08,8.31
		c-5.8-2.61-10.32-6.6-12.42-12.34c-1.18-3.21-4.98-7.8,3.72-7.68c3.8,0.05,2.14-3.87,2.2-6c0.35-11.03,4.19-17.21,14.43-22.54
		c3.45,2.26-0.77,5.27,0.88,8.06c3.17-3.58,5.77-7.34,9.22-10.24c7.22-6.07,15.83-9,25.73-7.84c2.27,0.27,5.47-0.95,6.6,1.25
		C382.51,126.45,377.61,126.23,377.37,129.2z"/>
	<path class="st9" d="M258.08,188.56c-0.09,8.8-8.07,15.84-17.65,15.56c-8.69-0.25-16.99-8.31-16.71-16.25
		c0.28-8.23,8.6-15.75,17.34-15.67C250.37,172.29,258.17,179.79,258.08,188.56z"/>
	<path class="st9" d="M358.99,187.94c0.11-8.28,8.26-15.89,16.86-15.75c9.24,0.14,17.75,8.01,17.51,16.18
		c-0.25,8.28-9.01,15.97-17.97,15.77C366.7,203.94,358.87,196.21,358.99,187.94z"/>
	<path class="st10" d="M293.66,167.5c-3.77,7.43-6.69,9.36-16.7,10.85c-0.11-1.08-0.31-2.14-0.3-3.19
		c0.26-16.1-8.54-23.57-26.04-22.37c-12.11,0.83-23.5,4.07-34.74,8.06c-1.67,0.59-3.65,2.84-5.46-0.15c-1.48-2.44-1-4.11,1.71-5.33
		c1.63-0.73,2.77-1.9,2.43-3.69c-0.78-4.15,1.38-5.63,5.51-5.55c0.69,0.01,1.99-0.36,1.98-0.52c-0.23-6.55,6.73-6,9.75-8.99
		c3.23-3.2,5.45-2.68,8.56-1.71c5.96,1.86,10.7,5.69,16.09,9.23c1.21-7.59-4.12-11.8-9.39-17.25c18.61,2.47,25.78,13.77,30.18,27.65
		c4.28-3.7,4.28-3.7,6.07-11.29c4.91,6.3,5.41,10.33,3.02,24.11C288.71,169.46,291.28,166,293.66,167.5z"/>
	<path class="st11" d="M340.1,178.37c-10.05-1.54-12.91-3.43-16.98-11.32c2.54,0.36,4.8,0.69,7.83,1.12
		c-1.84-8.84-3.25-17.35,2.87-26.01c1.17,5.05,0.84,9.81,5.99,12.33c4.43-13.69,11.55-24.96,29.5-27.6
		c-4.02,5.64-10.3,9.61-8.56,17.15c5.23-3.48,10-7.28,15.92-9.2c3.09-1.01,5.4-1.41,8.62,1.74c3.07,2.99,9.95,2.54,9.56,9.06
		c9.75-1.5,5.98,9.5,12.29,11.51c1.61,0.51-0.15,2.9-0.91,4.08c-1.26,1.98-3,0.37-4.4-0.13c-9.87-3.49-19.8-6.79-30.39-7.83
		C348.43,151.02,340.94,156.92,340.1,178.37z"/>
	<path class="st12" d="M242.31,183.06c-0.27,2.61-1.78,4.05-4.56,3.94c-2.46-0.09-3.83-1.61-3.91-3.8c-0.08-2.29,1.61-3.8,3.82-3.97
		C240.26,179.04,241.98,180.52,242.31,183.06z"/>
	<path class="st13" d="M377.26,183.21c-0.43,2.06-1.44,3.69-3.98,3.82c-2.87,0.15-4.39-1.25-4.5-3.86c-0.1-2.37,1.55-3.82,3.79-3.95
		C375.21,179.04,376.82,180.68,377.26,183.21z"/>
</g>
<g>
	<g>
		<path class="st14" d="M618.99,603.84c0.03-6.32,0.07-12.64,0.1-18.96c-3.02-10.4-10.81-19.83-17.97-29.34
			c-9.71-12.9-8.64-25.39,1.94-37.88c6.98-8.24,13.22-16.68,16.03-25.82c-0.01-6.7-0.02-13.4-0.04-20.1
			c-2.51-15.19-15.49-26.36-38.08-33.88c-10.99-3.66-22.64-5.1-35.18-4.04c-12.8-1.59-25.76-1.09-38.69-1.05
			c-39.84,0.36-67.79,13.09-91.7,30.03c-6.96,4.93-14.47,9.47-25.52,11.26c-3.71,0.65-7.43,1.04-11.34,1.03
			c-47.82-0.02-95.64-0.05-143.46,0c-2.1,0-4.19,0-6.09-0.6c-10.77-4-19.43-9.24-27.7-14.9c-14.01-9.57-30.3-17.61-50.43-22.66
			c-11.8-2.96-24.01-4.01-36.74-3.12c-12.15-1.78-24.49-1.2-36.8-1c-18.98,0.28-36.51,2.95-50.68,10.82
			c-13.72,7.62-24.48,16.11-22.56,28.04c-3.27,6.74-1.99,13.47,0.07,20.2c-0.75,4.13,0.92,8.03,3.59,11.8
			c2.67,3.78,4.9,7.72,8.42,11.22c14.18,14.11,13.22,28.23,2.19,42.84c-6.03,7.98-13.45,15.78-14.65,24.78
			c-0.16,1.22-0.82,2.4,0.44,3.54c-3.49,5.94-1.55,11.9-0.11,17.85c-1.58,6.5,0.87,12.54,6.92,17.97
			c14.62,13.15,33.42,22.24,62.3,21.12c13.56,1.91,27.33,0.92,41.02,0.99c38.91-0.55,67.09-12.34,90.39-29.32
			c7.32-5.33,15.73-9.93,27.27-12.08c3.63-0.95,7.46-0.94,11.32-0.94c46.46,0.03,92.92,0.02,139.37,0.01c3.5,0,7-0.08,10.25,0.83
			c10.64,3.39,18.68,8.45,26.27,13.82c14.41,10.21,31.32,18.53,52.44,23.73c10.12,2.49,20.54,3.45,31.43,2.91
			c14.2,1.42,28.53,1.15,42.84,1.07c20.91-0.17,38.58-4.69,53.32-13.34C611.85,623.23,617.97,614.19,618.99,603.84z"/>
		<path class="st15" d="M230.6,595.21c54,0,105.9,0,158.97,0c-4.94-4.58-9.6-8.74-13.92-13.01c-2.11-2.08-4.81-4.71,0.47-6.38
			c5.73-1.81,6.67,1.52,8.87,3.46c20.64,18.21,44.82,34.85,75.14,47.49c29.49,12.29,64.05,14.05,98.72,8.61
			c37.65-5.9,59.14-30.57,46.26-52.15c-5.29-8.86-12.08-17.41-18.21-26.09c-9.11-12.89-9.8-25.77,0.02-38.66
			c4.83-6.34,9.76-12.65,14.37-19.05c21.6-29.97-8.41-58.49-63.78-60.41c-41.18-1.43-76.51,5.77-104.2,24.38
			c-32.27,21.7-27.23,17.73-70.08,17.94c-41.05,0.21-82.13-0.36-123.16,0.24c-17.96,0.26-30.91-3.5-41.82-11.3
			c-12.67-9.06-26.05-17.89-44.34-23.17c-31.76-9.17-65-11.72-98.62-4.15c-33.51,7.55-50.92,30.41-39.1,50.22
			c4.47,7.5,10.05,14.82,16.07,21.94c11.22,13.29,12.08,26.62,2.65,40.29c-5.48,7.95-10.97,15.91-16.15,23.93
			c-18.74,29.02,10.76,56.18,63.71,58.3c44.48,1.78,81.6-6.53,110.07-27.42c14.99-11,33.94-20.14,45.05-32.97
			c1.31-1.52,3.76-2.58,6.96-1.56c3.54,1.13,3.23,2.96,1.97,4.81C243.03,585.65,236.63,589.76,230.6,595.21z"/>
		<path class="st16" d="M227.59,601.21c55.95,0.02,111.9,0.03,167.85,0.05c-1.95-2.97-6.24-1.33-9.24-1.34
			c-46.56-0.12-93.13-0.16-139.69,0.01C240.25,599.96,233.25,597.69,227.59,601.21z"/>
		<path class="st17" d="M393.96,475.54c-55.4,0.02-110.8,0.04-166.2,0.06c-1.03,0.12-2.31,0.05-3.02,0.4
			c-1.28,0.62-0.21,0.84,0.83,0.85c2.45,0.03,4.9,0.04,7.35,0.04c49.71,0,99.42,0.02,149.12-0.03
			C386.08,476.86,390.55,477.66,393.96,475.54z"/>
		<path class="st18" d="M113.79,457.28c5.47,1.51,11.09,2.43,16.93,0.85c1.64-0.44,2.49-1.77,1.64-2.67
			c-3.48-3.71-10.11-3.05-15.8-3.52c-22.77-1.91-44.05-0.39-61.29,9.65c-5.27,3.07-9.07,6.75-11.25,10.9
			c-0.81,1.54-1.11,3.35,2.3,4.2c3.12,0.78,5.72,0.16,6.87-1.63c6.89-10.74,21.92-15.24,39.56-17.81
			C99.77,456.22,106.78,456.17,113.79,457.28z"/>
		<path class="st19" d="M530.74,457.37c17.22,2.6,31.94,7.01,38.32,17.68c1.01,1.69,3.86,2.56,6.88,1.72
			c3.97-1.11,3.78-2.91,2.22-5.16c-7.3-10.5-20.68-16.75-39.28-19.21c-12.79-1.69-25.76-1.66-38.62-0.05
			c-4.16,0.52-10.38,0.21-9.41,4.16c1.08,4.37,7.12,1.84,11.03,1.95c1.89,0.05,3.85-0.7,5.77-1.09
			C515.35,456.16,523.04,456.17,530.74,457.37z"/>
		<path class="st20" d="M530.74,457.37c-7.69-2.25-15.39-2.13-23.08,0C515.35,457.37,523.04,457.37,530.74,457.37z"/>
		<path class="st21" d="M113.79,457.28c-7-1.98-14.02-1.97-21.04-0.03C99.77,457.26,106.78,457.27,113.79,457.28z"/>
	</g>
</g>
<g>
	<g>
		<path class="st22" d="M336.01,574.96c4.96,0,9.93-0.17,14.89,0.06c2.4,0.11,3.23-2.11,3.03-7.19c-0.96-26.41-0.09-52.88-1.11-79.3
			c-0.13-3.54-1.07-6.62-0.91-10.5c0.13-3.54-1.49-1.83-2.36-2.05c-1.13-0.29-2.47-0.29-2.31,3.42c0.27,5.76-1.29,5.76-3.14,5.53
			c-5.19-0.57-10.37-0.8-15.53-1.65c-1.58-0.29-3.94,2.17-4.29-5.25c-0.11-2.45-2.49-3.02-3.81-0.4c-1.71,3.54-3.34,7.3-4.98,10.95
			c-1.29,2.91-0.8,5.88,0.38,7.64c1.76,2.62,1.67,5.99,1.4,9.76c-1.36,19.57-1.29,39.25-1.49,58.99c-0.07,7.02,1.13,9.64,3.98,9.7
			c5.41,0.06,10.82,0,16.25,0C336.01,574.79,336.01,574.9,336.01,574.96z"/>
		<path class="st22" d="M235.97,545.47c0-15.97,0.09-31.95-0.07-47.92c-0.04-3.77,0.8-9.13-2.31-10.33
			c-0.85-0.34-0.36-3.59-0.38-5.48c-0.02-3.48-0.4-5.65-2.27-5.82c-1.96-0.17-2.45,2.4-2.27,5.65c0.27,5.08-1.05,4.85-2.63,4.79
			c-5.74-0.11-11.51-0.29-17.25,0.06c-2.03,0.11-2.85-1.2-2.92-5.59c-0.04-2.8-0.31-5.53-2.16-4.96c-1.42,0.4-2.45,1.71-2.34,5.08
			c0.13,4.16-0.47,5.99-2.45,5.36c-1.16-0.34-1.76,0.34-1.65,3.77c0.49,15.69,0.04,31.43-0.36,47.12
			c-0.27,10.5,0.22,20.94,0.4,31.38c0.09,5.13,1.56,5.36,3.12,5.88c5.76,1.71,11.48-0.51,17.2-1.37c5.07-0.74,10.15-1.65,15.2-0.86
			c2.94,0.46,3.83-2.22,3.76-8.1c-0.07-6.22-0.02-12.49-0.02-18.71C236.4,545.47,236.17,545.47,235.97,545.47z"/>
		<path class="st23" d="M428.98,536.74c-0.33-13.69-0.71-27.38-1-41.13c-0.13-6.22-2.83-8.39-4.07-12.84
			c-0.47-1.65-2.76-2.22-3.14,1.08c-0.65,5.7-2.23,4.34-3.81,3.71c-5.59-2.28-11.28-0.29-16.87-2.28c-1.11-0.4-2.27,0.11-2.38-3.54
			c-0.16-5.31-2-4.39-3.52-4.16c-1.8,0.29-1.8,3.42-1.6,6.1c0.33,4.34-1.25,10.38,2.23,12.32c0.87,0.51,0.49,3.59,0.4,5.48
			c-0.82,21.96-0.09,43.87,0.71,65.78c0.22,5.93,0.93,7.87,3.76,8.04c7.57,0.4,15.07-2.4,22.63-1.71c2.18,0.23,4.94,3.99,6.43,0.23
			c1.45-3.65,0.4-10.04,0.45-15.23c0.04-7.25,0-14.49,0-21.68C429.16,536.79,429.07,536.79,428.98,536.74z"/>
		<path class="st23" d="M367.16,574.96c5.63,0,11.24-2.11,16.89-1.43c1.13,0.11,2.27,0,3.38,0.23c5.65,0.97,5.94,0.91,5.19-11.3
			c-1.34-21.85-1.67-43.81-2.29-65.72c-0.18-6.56-2.78-8.84-3.92-13.69c-0.45-1.94-3.14-2.97-3.58,1.26
			c-0.56,5.13-1.89,3.88-3.2,3.37c-5.7-2.4-11.51-0.46-17.2-2.45c-1.2-0.4-2.43,0.17-2.56-3.94c-0.16-4.74-1.89-4.05-3.32-3.88
			c-1.67,0.23-2.09,2.85-1.82,5.82c0.4,4.51-1.29,11.07,2.38,12.72c0.24,0.11,0.31,2.74,0.36,4.16c0.65,20.94,1.31,41.87,1.94,62.81
			c0.36,11.81,0.33,11.81,5.74,11.98C365.8,575.02,366.49,574.96,367.16,574.96z"/>
		<path class="st23" d="M249.79,575.02c5.74-0.06,11.46-2.11,17.22-1.37c1.47,0.17,2.94,0.17,4.38,0.51
			c4.36,1.08,4.61,1.08,4.09-8.33c-1.25-22.59-1.89-45.3-2.31-67.94c-0.13-6.9-2.67-9.64-3.87-14.55c-0.58-2.34-3.25-3.37-3.92,2.11
			c-0.31,2.62-0.73,3.14-1.8,2.68c-6.12-2.8-12.4-0.86-18.56-2.85c-1.11-0.34-2.23,0.11-2.34-3.59c-0.13-4.56-1.69-4.45-3.23-4.22
			c-1.89,0.23-2.27,3.14-1.98,6.28c0.38,4.28-1.29,10.5,2.27,12.15c0.76,0.34,0.42,3.08,0.49,4.79c0.65,20.71,1.27,41.36,1.91,62.07
			c0.38,12.09,0.38,12.09,5.92,12.32C248.66,575.02,249.24,575.02,249.79,575.02z"/>
		<path class="st22" d="M277.54,532.23c0,11.98,0.07,23.96-0.02,35.94c-0.04,4.96,0.53,7.07,3.05,6.9
			c8.79-0.63,17.58,0.63,26.37-1.08c1.54-0.29,3.16,0.17,4.7,0.8c2.18,0.91,2.89-1.26,2.74-5.59c-0.33-10.44-0.71-20.88-1.02-31.38
			c-0.36-12.21-0.89-24.42-0.93-36.63c-0.02-6.1-1.96-11.07-1.51-17.4c0.18-2.51-1.49-3.42-2.65-3.31c-1.02,0.11-1.71,1.6-1.51,3.99
			c0.47,6.16-1.02,6.67-3.27,6.5c-5.19-0.34-10.37-0.17-15.58-0.06c-1.47,0-2.71,0.11-2.38-4.51c0.27-3.48-0.33-5.88-2.11-5.99
			c-1.82-0.11-2.67,1.88-2.63,5.93c0.02,2.11,0.24,5.36-1.38,4.16c-2.8-2-2.63,1.54-2.58,5.7c0.07,11.98,0.02,23.96,0.02,35.94
			C277.06,532.23,277.3,532.23,277.54,532.23z"/>
		<path class="st24" d="M334.83,571.77c5.07,0,10.13-0.06,15.2,0.06c1.78,0.06,2.67-0.97,2.56-5.48
			c-0.58-22.13-0.16-44.38-1.11-66.52c-0.16-3.42-0.47-4.79-2.09-4.62c-1.36,0.17-2.78-0.11-2.58-4.74c0.16-3.37-1.16-2.34-1.94-2.4
			c-6.85-0.46-13.73,0.91-20.58-1.48c-2-0.68-5.01,6.1-5.3,11.47c-1.2,22.53-1.98,45.13-1.78,67.89c0.02,3.65,0.56,4.79,2.09,4.74
			c5.19-0.11,10.37-0.06,15.53-0.06C334.83,571.08,334.83,571.42,334.83,571.77z"/>
		<path class="st24" d="M233.5,490.93c-1.05,1.83-0.53,6.33-2.58,6.1c-1.76-0.17-1.96-2.68-2.14-5.42c-0.2-3.19-1.31-2.11-2.09-2.11
			c-6.1-0.06-12.17-0.11-18.27,0c-0.87,0-1.71-0.86-2.27,2.57c-0.8,5.08-3.38,4.79-4.65-0.17c-0.38-1.48-0.58-2.62-1.4-2.22
			c-0.76,0.4-0.56,1.94-0.6,3.08c-0.76,24.87-1.54,49.75-0.71,74.73c0.13,4.28,1.38,3.82,2.56,4.11c5.76,1.31,11.48-0.86,17.2-1.6
			c4.74-0.63,9.46-1.08,14.2-0.91c1.49,0.06,2.36-0.63,2.34-4.34c-0.24-23.68-0.02-47.41-0.78-71.08
			C234.28,492.64,234.28,491.61,233.5,490.93z"/>
		<path class="st24" d="M426.42,492.52c-1.11,0.46-1.11,1.48-1.16,2.45c-0.18,3.08,0.22,6.79-2.18,6.5
			c-1.89-0.23-3.03-1.54-2.89-6.16c0.11-4.05-1.29-3.88-2.51-4.51c-6.12-2.91-12.37-0.68-18.56-1.94c-1.67-0.34-2.18,6.73-2.29,9.93
			c-0.8,22.93-0.4,45.92,0.6,68.86c0.13,3.08,0.62,4.39,2.09,4.28c2.83-0.29,5.65,0.11,8.46-0.46c4.63-0.91,9.24-1.14,13.86-0.91
			c6.05,0.34,6.1,0.34,5.88-12.84C427.34,536.05,426.87,514.43,426.42,492.52z"/>
		<path class="st24" d="M387.72,491.9c-0.42,5.36-0.11,11.69-3.69,9.3c-0.93-0.63-1.74-1.43-1.6-3.99c0.29-5.25-1.2-5.7-3.05-6.5
			c-5.92-2.57-11.91-0.74-17.85-1.54c-1.91-0.29-2.47,6.79-2.4,10.21c0.4,22.65,1.2,45.3,1.82,67.94c0.11,3.99,1.02,4.62,2.63,4.68
			c7.43,0.34,14.84-2.22,22.28-1.43c6.03,0.68,6.03,0.51,5.1-12.78c-1.38-19.74-1.27-39.76-2.16-59.62
			C388.7,496.29,389.06,494.18,387.72,491.9z"/>
		<path class="st24" d="M274.38,571.82c-1.6-26.93-2.14-53.06-2.96-79.47c-1.62,1.14-1.18,3.25-1.25,4.74
			c-0.13,2.91-0.53,4.85-2.07,4.34c-1.27-0.4-3.03,0.23-2.87-4.28c0.16-5.36-1.29-5.59-3.12-6.39c-5.92-2.62-11.91-0.74-17.85-1.54
			c-1.78-0.23-2.45,6.67-2.38,10.27c0.42,22.42,1.18,44.78,1.78,67.2c0.11,4.05,0.82,5.59,2.71,5.31c4.5-0.63,8.99-0.97,13.49-1.26
			C264.48,570.34,269.11,570.05,274.38,571.82z"/>
		<path class="st24" d="M310.57,494.52c-1.36,5.65-2.74,7.36-3.94,1.37c-0.58-2.91-1.49-1.71-2.23-1.71
			c-5.52-0.11-11.06-0.06-16.58-0.11c-1.29,0-2.51-0.23-2.63,3.77c-0.09,3.25-0.98,3.99-2.31,3.65c-1.2-0.29-2.36-0.63-2.34-3.99
			c0.02-2.28-0.04-4.16-1.36-3.42c-1.45,0.8-0.78,3.77-0.78,5.48c0.11,20.2,0.31,40.45,0.53,60.64c0.13,12.21,0.18,13.12,5.74,12.55
			c8.77-0.86,17.54-1.08,26.3-0.68c2.38,0.11,1.85-3.19,1.78-5.82C312.08,542.67,311.33,519.11,310.57,494.52z"/>
		<path d="M333.09,540.05c2.4,4.51,4.5,8.5,6.63,12.38c0.96,1.77,1.96,3.25,3.34,2.91c2.16-0.57,3.63-0.97,3.18-7.93
			c-0.73-11.52-1.4-23.22-1.18-35.03c0.11-5.7-0.85-8.73-3.78-8.1c-1.74,0.34-2.4,1.26-2.34,5.19c0.11,6.39,0.02,12.78,0.02,20.88
			c-3.2-8.21-5.36-15.97-7.14-24.07c-1.13-5.13-2.74-5.25-4.67-4.79c-2.34,0.51-1.49,4.85-1.56,7.64
			c-0.42,14.21-0.13,28.41,0.04,42.62c0.07,4.74,0.69,7.19,3.16,6.85c2.05-0.29,4.07,0.86,3.96-6.1
			C332.69,548.66,332.96,544.78,333.09,540.05z"/>
		<path d="M211.21,562.92c4.27,2.85,5.88-0.34,5.54-8.5c-0.2-5.02,0.69-7.36,3.05-6.9c1,0.23,2.03-0.11,3.05-0.23
			c4.29-0.34,5.9-5.65,4.52-14.83c-0.4-2.68-1.27-3.19-2.36-3.19c-2.69,0.11-5.41-0.46-8.08,0.97c-0.82,0.46-1.67,0.46-1.62-2.17
			c0.04-2.28,0.91-1.77,1.51-1.77c2.36-0.06,4.74,0.17,7.1-0.11c1.91-0.23,4.16-0.57,3.49-7.07c-0.51-5.08,0.85-13.24-3.74-12.38
			c-4.63,0.86-9.21-1.37-13.82-1.54c-2.05-0.06-2.87,1.2-3.03,6.33c-0.47,15.97,1.25,31.72,0.47,47.75
			C206.82,567.77,210.58,560.53,211.21,562.92z"/>
		<path d="M422.17,535.37c-0.31-8.22-1.11-15.57-3.69-21.51c-4.25-9.76-10.21-7.87-12.95,4.56c-1.11,5.08-2.03,10.55-2.65,16.03
			c-1.38,12.15,1.6,24.19,6.39,26.64c4.63,2.34,11.42-7.36,12.46-17.97C422.02,540.5,422.06,537.71,422.17,535.37z"/>
		<path d="M377.89,504.45c-4.74,0.11-8.7,7.47-10.44,19c-0.38,2.57-0.53,5.31-0.82,7.99c-2.14,20.99,1.2,30.69,13.4,28.75
			c0.98-0.17,1.96-1.43,2.94-1.54c1.85-0.23,2.4-2.28,1.96-5.88c-0.42-3.37,0.27-8.5-2.76-7.93c-2.76,0.51-5.41-0.74-7.25-6.05
			c-2.63-7.53-0.91-16.09,3.87-19c1.54-0.97,3.85,0.86,3.16-6.22C381.36,507.98,380.82,503.25,377.89,504.45z"/>
		<path d="M255.56,546.38c2.98,5.02,5.07,9.58,7.74,12.38c1.38,1.48,2.49,2.22,3.45-1.31c0.87-3.25,1.98-6.39,0.2-9.87
			c-0.51-0.97-1.05-1.88-1.58-2.85c-3.89-7.19-3.89-7.19-1.71-16.6c1.91-8.27,1.13-15-2.34-20.02c-3.74-5.36-7.92-6.67-12.26-6.85
			c-1.56-0.06-1.89,1.6-1.78,4.68c0.65,17.11,1.25,34.29,1.89,51.4c0.24,6.67,4.07,10.5,6.7,6.85c0.91-1.26,0.58-3.08,0.51-4.62
			C256.16,555.73,255.87,551.86,255.56,546.38z"/>
		<path d="M284.22,548.72c0,2.62,0,3.37,0,4.11c-0.11,10.78,2.11,14.32,6.97,11.24c1-0.63,1.58-1.83,1.62-4.11
			c0.04-1.77,0.02-3.48,0.02-5.25c0.02-10.67,1.82-13.58,6.68-11.24c1.13,0.57,1.45,2.05,1.62,4.05c0.27,3.19,0.51,6.39,0.73,9.58
			c0.24,3.59-0.02,7.99,2.71,7.07c2.18-0.74,3.76-1.65,3.54-8.16c-0.49-14.83-1.47-29.21-4.7-42.56c-0.96-3.99-2.05-6.33-4.14-5.93
			c-0.78,0.17-1.58-0.06-2.36-0.06c-9.46,0.4-9.55,2.68-11.95,23.73C284.24,537.36,284.4,544.1,284.22,548.72z"/>
		<path class="st25" d="M410.16,535.48c0.47,2.57-0.51,7.7,1.8,7.59c1.85-0.11,2.98-3.82,2.78-7.99c-0.2-3.77-0.29-9.3-2.51-9.24
			C409.91,525.96,410.29,531.32,410.16,535.48z"/>
		<path class="st26" d="M293.86,525.56c-0.6,5.88,0.53,6.05,1.94,5.99c1.25-0.06,2.27-0.06,2.03-3.88c-0.2-3.37-0.38-6.5-2.4-6.73
			C293.06,520.71,294.01,524.81,293.86,525.56z"/>
	</g>
</g>
</svg>
